<svg version="1.1" xmlns="http://www.w3.org/2000/svg" viewBox="0 0 251.62890625 124.58203125">
  <!-- svg-source:excalidraw -->
  <defs>
    <style>
      @font-face {
        font-family: "Virgil";
        src: url("https://excalidraw.com/FG_Virgil.woff2");
      }
      @font-face {
        font-family: "Cascadia";
        src: url("https://excalidraw.com/Cascadia.woff2");
      }
    </style>
  </defs>
  <rect x="0" y="0" width="251.62890625" height="124.58203125" fill="#ffffff"></rect><g transform="translate(25.55859375 18.5546875) rotate(0 0.12890625 0.12890625)"><path d="M0 0 C0.06573166280650186 0, 0.13146332561300372 0, 0.2578125 0 M0 0 C0.08806114967082977 0, 0.17612229934165954 0, 0.2578125 0 M0.2578125 0 C0.2578125 0.07750881476458746, 0.2578125 0.15501762952917492, 0.2578125 0.2578125 M0.2578125 0 C0.2578125 0.09410295937777846, 0.2578125 0.18820591875555692, 0.2578125 0.2578125 M0.2578125 0.2578125 C0.15778822231441153 0.2578125, 0.05776394462882309 0.2578125, 0 0.2578125 M0.2578125 0.2578125 C0.1876825773892051 0.2578125, 0.1175526547784102 0.2578125, 0 0.2578125 M0 0.2578125 C0 0.1921968543982075, 0 0.12658120879641502, 0 0 M0 0.2578125 C0 0.16309382431572883, 0 0.06837514863145769, 0 0" style="stroke: rgb(0, 0, 0); stroke-width: 1; fill: none;"></path></g><g transform="translate(36.10546875 48.47265625) rotate(0 16.15234375 16.15234375)"><path d="M0 0 L32.3046875 0 L32.3046875 32.3046875 L0 32.3046875" style="stroke: none; stroke-width: 0; fill: rgb(250, 176, 5);"></path><path d="M0 0 C10.801264168079797 0, 21.602528336159594 0, 32.3046875 0 M0 0 C7.203286353473231 0, 14.406572706946463 0, 32.3046875 0 M32.3046875 0 C32.3046875 9.117838358240988, 32.3046875 18.235676716481976, 32.3046875 32.3046875 M32.3046875 0 C32.3046875 7.54213817566415, 32.3046875 15.0842763513283, 32.3046875 32.3046875 M32.3046875 32.3046875 C21.59983878760613 32.3046875, 10.894990075212263 32.3046875, 0 32.3046875 M32.3046875 32.3046875 C22.94351681766784 32.3046875, 13.582346135335683 32.3046875, 0 32.3046875 M0 32.3046875 C0 19.84184011587422, 0 7.37899273174844, 0 0 M0 32.3046875 C0 19.467735952839575, 0 6.630784405679151, 0 0" style="stroke: rgb(0, 0, 0); stroke-width: 1; fill: none;"></path></g><g transform="translate(10 10.19921875) rotate(0 44.5 11)"><text x="44.5" y="17" font-family="Cascadia" font-size="16px" fill="#000000" text-anchor="middle">1个逻辑像素</text></g><g transform="translate(166.74609375 81.3828125) rotate(0 16.15234375 16.15234375)"><path d="M0 0 L32.3046875 0 L32.3046875 32.3046875 L0 32.3046875" style="stroke: none; stroke-width: 0; fill: rgb(18, 184, 134);"></path><path d="M0 0 C9.850891751793824 0, 19.70178350358765 0, 32.3046875 0 M0 0 C6.956689039328921 0, 13.913378078657843 0, 32.3046875 0 M32.3046875 0 C32.3046875 9.423048853150249, 32.3046875 18.846097706300498, 32.3046875 32.3046875 M32.3046875 0 C32.3046875 12.417482382119488, 32.3046875 24.834964764238975, 32.3046875 32.3046875 M32.3046875 32.3046875 C25.346950869217835 32.3046875, 18.38921423843567 32.3046875, 0 32.3046875 M32.3046875 32.3046875 C25.4058051418142 32.3046875, 18.506922783628397 32.3046875, 0 32.3046875 M0 32.3046875 C0 23.17752494060187, 0 14.05036238120374, 0 0 M0 32.3046875 C0 24.781269144998078, 0 17.257850789996155, 0 0" style="stroke: rgb(0, 0, 0); stroke-width: 1; fill: none;"></path></g><g transform="translate(166.4765625 49.0234375) rotate(0 16.15234375 16.15234375)"><path d="M0 0 L32.3046875 0 L32.3046875 32.3046875 L0 32.3046875" style="stroke: none; stroke-width: 0; fill: rgb(250, 176, 5);"></path><path d="M0 0 C10.292389400510729 0, 20.584778801021457 0, 32.3046875 0 M0 0 C11.539281410598052 0, 23.078562821196105 0, 32.3046875 0 M32.3046875 0 C32.3046875 11.921332536123375, 32.3046875 23.84266507224675, 32.3046875 32.3046875 M32.3046875 0 C32.3046875 12.225516890957806, 32.3046875 24.451033781915612, 32.3046875 32.3046875 M32.3046875 32.3046875 C23.417524286105618 32.3046875, 14.530361072211235 32.3046875, 0 32.3046875 M32.3046875 32.3046875 C25.24023280086476 32.3046875, 18.17577810172952 32.3046875, 0 32.3046875 M0 32.3046875 C0 19.38552690567667, 0 6.46636631135334, 0 0 M0 32.3046875 C0 19.690764357717853, 0 7.076841215435703, 0 0" style="stroke: rgb(0, 0, 0); stroke-width: 1; fill: none;"></path></g><g transform="translate(199.5546875 48.9296875) rotate(0 16.15234375 16.15234375)"><path d="M0 0 L32.3046875 0 L32.3046875 32.3046875 L0 32.3046875" style="stroke: none; stroke-width: 0; fill: rgb(21, 170, 191);"></path><path d="M0 0 C6.696690871580358 0, 13.393381743160717 0, 32.3046875 0 M0 0 C8.072866723032348 0, 16.145733446064696 0, 32.3046875 0 M32.3046875 0 C32.3046875 11.223895579194505, 32.3046875 22.44779115838901, 32.3046875 32.3046875 M32.3046875 0 C32.3046875 7.527250425631792, 32.3046875 15.054500851263583, 32.3046875 32.3046875 M32.3046875 32.3046875 C19.53695918995436 32.3046875, 6.769230879908719 32.3046875, 0 32.3046875 M32.3046875 32.3046875 C23.016819902371935 32.3046875, 13.728952304743867 32.3046875, 0 32.3046875 M0 32.3046875 C0 22.987555931937095, 0 13.67042436387419, 0 0 M0 32.3046875 C0 23.344641058731213, 0 14.384594617462426, 0 0" style="stroke: rgb(0, 0, 0); stroke-width: 1; fill: none;"></path></g><g transform="translate(199.51953125 82.27734375) rotate(0 16.15234375 16.15234375)"><path d="M0 0 L32.3046875 0 L32.3046875 32.3046875 L0 32.3046875" style="stroke: none; stroke-width: 0; fill: rgb(250, 82, 82);"></path><path d="M0 0 C12.391366120162274 0, 24.78273224032455 0, 32.3046875 0 M0 0 C11.743875469637715 0, 23.48775093927543 0, 32.3046875 0 M32.3046875 0 C32.3046875 9.410538222724428, 32.3046875 18.821076445448856, 32.3046875 32.3046875 M32.3046875 0 C32.3046875 12.274732929861784, 32.3046875 24.54946585972357, 32.3046875 32.3046875 M32.3046875 32.3046875 C24.326938457354117 32.3046875, 16.349189414708235 32.3046875, 0 32.3046875 M32.3046875 32.3046875 C19.749397930831037 32.3046875, 7.194108361662071 32.3046875, 0 32.3046875 M0 32.3046875 C0 20.985853715948906, 0 9.667019931897812, 0 0 M0 32.3046875 C0 20.265013251013443, 0 8.225339002026882, 0 0" style="stroke: rgb(0, 0, 0); stroke-width: 1; fill: none;"></path></g><g transform="translate(152.62890625 10) rotate(0 44.5 11)"><text x="44.5" y="17" font-family="Cascadia" font-size="16px" fill="#000000" text-anchor="middle">4个物理像素</text></g></svg>