<svg version="1.1" xmlns="http://www.w3.org/2000/svg" viewBox="0 0 637.083984375 837.63818359375" width="1274.16796875" height="1675.2763671875">
  <!-- svg-source:excalidraw -->
  
  <defs>
    <style>
      @font-face {
        font-family: "Virgil";
        src: url("https://excalidraw.com/FG_Virgil.woff2");
      }
      @font-face {
        font-family: "Cascadia";
        src: url("https://excalidraw.com/Cascadia.woff2");
      }
    </style>
  </defs>
  <rect x="0" y="0" width="637.083984375" height="837.63818359375" fill="#ffffff"></rect><g stroke-opacity="0.7" fill-opacity="0.7" transform="translate(10 219.3511962890625) rotate(0 220.8720703125 214.16796875)"><path d="M0 0 L441.744140625 0 L441.744140625 428.33593750000006 L0 428.33593750000006" stroke="none" stroke-width="0" fill="#ced4da"></path><path d="M0 0 C113.02811283090341 0, 226.05622566180682 0, 441.744140625 0 M0 0 C155.3018466172791 0, 310.6036932345582 0, 441.744140625 0 M441.744140625 0 C441.744140625 104.76851291190543, 441.744140625 209.53702582381086, 441.744140625 428.33593750000006 M441.744140625 0 C441.744140625 139.01595022012773, 441.744140625 278.03190044025547, 441.744140625 428.33593750000006 M441.744140625 428.33593750000006 C269.28873802294765 428.33593750000006, 96.83333542089531 428.33593750000006, 0 428.33593750000006 M441.744140625 428.33593750000006 C324.95741103891703 428.33593750000006, 208.1706814528341 428.33593750000006, 0 428.33593750000006 M0 428.33593750000006 C0 272.4677200313687, 0 116.59950256273731, 0 0 M0 428.33593750000006 C0 289.36084679043563, 0 150.3857560808712, 0 0" stroke="#000000" stroke-width="2" fill="none"></path></g><g stroke-opacity="0.7" fill-opacity="0.7" transform="translate(466.796875 411.8277587890625) rotate(0 72 11)"><text x="72" y="17" font-family="Cascadia, Segoe UI Emoji" font-size="16px" fill="#000000" text-anchor="middle" style="white-space: pre;" direction="ltr">滚动容器的可视区域</text></g><g transform="translate(98.68359375 189.3160400390625) rotate(0 131.166015625 29.0859375)"><path d="M0 0 L262.33203125 0 L262.33203125 58.171875 L0 58.171875" stroke="none" stroke-width="0" fill="#15aabf"></path><path d="M0 0 C75.89036425454688 0, 151.78072850909376 0, 262.33203125 0 M0 0 C59.70748890803516 0, 119.41497781607032 0, 262.33203125 0 M262.33203125 0 C262.33203125 17.70106965302839, 262.33203125 35.40213930605678, 262.33203125 58.171875 M262.33203125 0 C262.33203125 21.047103674436222, 262.33203125 42.094207348872445, 262.33203125 58.171875 M262.33203125 58.171875 C184.57822508960817 58.171875, 106.82441892921634 58.171875, 0 58.171875 M262.33203125 58.171875 C160.3568524572314 58.171875, 58.38167366446285 58.171875, 0 58.171875 M0 58.171875 C0 40.86262707897113, 0 23.553379157942253, 0 0 M0 58.171875 C0 38.15025438954471, 0 18.128633779089434, 0 0" stroke="#000000" stroke-width="2" fill="none"></path></g><g transform="translate(194.931640625 209.1402587890625) rotate(0 42 9.5)"><text x="42" y="15" font-family="Cascadia, Segoe UI Emoji" font-size="16px" fill="#000000" text-anchor="middle" style="white-space: pre;" direction="ltr">List Item</text></g><g transform="translate(208.3203125 769.6661376953125) rotate(0 29.5 12)"><text x="29.5" y="19" font-family="Cascadia, Segoe UI Emoji" font-size="20px" fill="#ff4000" text-anchor="middle" style="white-space: pre;" direction="ltr">empty</text></g><g stroke-opacity="0.7" fill-opacity="0.7" transform="translate(413.083984375 763.1505126953125) rotate(0 107 11)"><text x="107" y="17" font-family="Cascadia, Segoe UI Emoji" font-size="16px" fill="#000000" text-anchor="middle" style="white-space: pre;" direction="ltr">不渲染不在可视区域内的Item</text></g><g transform="translate(72.828125 156.062744140625) rotate(0 158.220703125 51.708984375)"><path d="M0 0 C64.03695946815861 0, 128.07391893631723 0, 316.44140625000006 0 M0 0 C114.82142734180236 0, 229.64285468360472 0, 316.44140625000006 0 M316.44140625000006 0 C316.44140625000006 35.064626873681846, 316.44140625000006 70.12925374736369, 316.44140625000006 103.41796875 M316.44140625000006 0 C316.44140625000006 23.833388127059152, 316.44140625000006 47.666776254118304, 316.44140625000006 103.41796875 M316.44140625000006 103.41796875 C237.98313553905615 103.41796875, 159.52486482811221 103.41796875, 0 103.41796875 M316.44140625000006 103.41796875 C226.79378429989305 103.41796875, 137.14616234978604 103.41796875, 0 103.41796875 M0 103.41796875 C0 74.93808141935006, 0 46.45819408870011, 0 0 M0 103.41796875 C0 81.01699813534651, 0 58.616027520693024, 0 0" stroke="#000000" stroke-width="2" fill="none"></path></g><g transform="translate(79.54296875000023 161.2185924340647) rotate(0 154.5 9.5)"><text x="154.5" y="15" font-family="Cascadia, Segoe UI Emoji" font-size="16px" fill="#000000" text-anchor="middle" style="white-space: pre;" direction="ltr">Child Component with fixed height</text></g><g transform="translate(99.857421875 333.3443603515625) rotate(0 131.166015625 29.0859375)"><path d="M0 0 L262.33203125 0 L262.33203125 58.171875 L0 58.171875" stroke="none" stroke-width="0" fill="#15aabf"></path><path d="M0 0 C75.19644402304985 0, 150.3928880460997 0, 262.33203125 0 M0 0 C55.230255746377225 0, 110.46051149275445 0, 262.33203125 0 M262.33203125 0 C262.33203125 16.975346064852786, 262.33203125 33.95069212970557, 262.33203125 58.171875 M262.33203125 0 C262.33203125 22.46399399637594, 262.33203125 44.92798799275188, 262.33203125 58.171875 M262.33203125 58.171875 C172.7813047841904 58.171875, 83.23057831838085 58.171875, 0 58.171875 M262.33203125 58.171875 C161.6422853380427 58.171875, 60.95253942608542 58.171875, 0 58.171875 M0 58.171875 C0 41.013899961946294, 0 23.855924923892594, 0 0 M0 58.171875 C0 45.20184011050151, 0 32.231805221003015, 0 0" stroke="#000000" stroke-width="2" fill="none"></path></g><g transform="translate(196.10546875 353.1685791015625) rotate(0 42 9.5)"><text x="42" y="15" font-family="Cascadia, Segoe UI Emoji" font-size="16px" fill="#000000" text-anchor="middle" style="white-space: pre;" direction="ltr">List Item</text></g><g transform="translate(74.001953125 300.091064453125) rotate(0 158.220703125 51.708984375)"><path d="M0 0 C91.98761608964271 0, 183.97523217928543 0, 316.44140625000006 0 M0 0 C63.853552611098 0, 127.707105222196 0, 316.44140625000006 0 M316.44140625000006 0 C316.44140625000006 30.394821710397085, 316.44140625000006 60.78964342079417, 316.44140625000006 103.41796875 M316.44140625000006 0 C316.44140625000006 34.22681750114862, 316.44140625000006 68.45363500229725, 316.44140625000006 103.41796875 M316.44140625000006 103.41796875 C212.5618952790232 103.41796875, 108.68238430804632 103.41796875, 0 103.41796875 M316.44140625000006 103.41796875 C219.0785717382838 103.41796875, 121.71573722656757 103.41796875, 0 103.41796875 M0 103.41796875 C0 75.54894907774724, 0 47.67992940549447, 0 0 M0 103.41796875 C0 82.30629915287864, 0 61.194629555757274, 0 0" stroke="#000000" stroke-width="2" fill="none"></path></g><g transform="translate(80.71679687500023 305.2469127465647) rotate(0 154.5 9.5)"><text x="154.5" y="15" font-family="Cascadia, Segoe UI Emoji" font-size="16px" fill="#000000" text-anchor="middle" style="white-space: pre;" direction="ltr">Child Component with fixed height</text></g><g transform="translate(99.271484375 477.0943603515625) rotate(0 131.166015625 29.0859375)"><path d="M0 0 L262.33203125 0 L262.33203125 58.171875 L0 58.171875" stroke="none" stroke-width="0" fill="#15aabf"></path><path d="M0 0 C53.067964283119366 0, 106.13592856623873 0, 262.33203125 0 M0 0 C77.98068127725419 0, 155.96136255450838 0, 262.33203125 0 M262.33203125 0 C262.33203125 22.531121671112487, 262.33203125 45.062243342224974, 262.33203125 58.171875 M262.33203125 0 C262.33203125 20.831708801159404, 262.33203125 41.66341760231881, 262.33203125 58.171875 M262.33203125 58.171875 C160.45909136382542 58.171875, 58.586151477650844 58.171875, 0 58.171875 M262.33203125 58.171875 C183.57068416634428 58.171875, 104.80933708268856 58.171875, 0 58.171875 M0 58.171875 C0 35.8031470579037, 0 13.434419115807394, 0 0 M0 58.171875 C0 37.16825261265622, 0 16.16463022531243, 0 0" stroke="#000000" stroke-width="2" fill="none"></path></g><g transform="translate(195.51953125 496.9185791015625) rotate(0 42 9.5)"><text x="42" y="15" font-family="Cascadia, Segoe UI Emoji" font-size="16px" fill="#000000" text-anchor="middle" style="white-space: pre;" direction="ltr">List Item</text></g><g transform="translate(73.416015625 443.841064453125) rotate(0 158.220703125 51.708984375)"><path d="M0 0 C76.92263392992756 0, 153.8452678598551 0, 316.44140625000006 0 M0 0 C106.34146890809791 0, 212.68293781619582 0, 316.44140625000006 0 M316.44140625000006 0 C316.44140625000006 24.59783129485004, 316.44140625000006 49.19566258970008, 316.44140625000006 103.41796875 M316.44140625000006 0 C316.44140625000006 29.093996506089752, 316.44140625000006 58.187993012179504, 316.44140625000006 103.41796875 M316.44140625000006 103.41796875 C223.41593154044386 103.41796875, 130.3904568308877 103.41796875, 0 103.41796875 M316.44140625000006 103.41796875 C225.52521708130809 103.41796875, 134.60902791261614 103.41796875, 0 103.41796875 M0 103.41796875 C0 63.94702137124113, 0 24.476073992482256, 0 0 M0 103.41796875 C0 75.58256942462322, 0 47.747170099246425, 0 0" stroke="#000000" stroke-width="2" fill="none"></path></g><g transform="translate(80.13085937500023 448.9969127465647) rotate(0 154.5 9.5)"><text x="154.5" y="15" font-family="Cascadia, Segoe UI Emoji" font-size="16px" fill="#000000" text-anchor="middle" style="white-space: pre;" direction="ltr">Child Component with fixed height</text></g><g transform="translate(100.244140625 617.75537109375) rotate(0 131.166015625 29.0859375)"><path d="M0 0 L262.33203125 0 L262.33203125 58.171875 L0 58.171875" stroke="none" stroke-width="0" fill="#15aabf"></path><path d="M0 0 C62.812796920539405 0, 125.62559384107881 0, 262.33203125 0 M0 0 C84.1422967505394 0, 168.2845935010788 0, 262.33203125 0 M262.33203125 0 C262.33203125 20.08383137396886, 262.33203125 40.16766274793772, 262.33203125 58.171875 M262.33203125 0 C262.33203125 21.329791006544838, 262.33203125 42.659582013089675, 262.33203125 58.171875 M262.33203125 58.171875 C187.56015619290847 58.171875, 112.78828113581693 58.171875, 0 58.171875 M262.33203125 58.171875 C197.6707040883848 58.171875, 133.00937692676962 58.171875, 0 58.171875 M0 58.171875 C0 40.66938812509761, 0 23.166901250195224, 0 0 M0 58.171875 C0 42.26924721700489, 0 26.36661943400977, 0 0" stroke="#000000" stroke-width="2" fill="none"></path></g><g transform="translate(196.4921875 637.57958984375) rotate(0 42 9.5)"><text x="42" y="15" font-family="Cascadia, Segoe UI Emoji" font-size="16px" fill="#000000" text-anchor="middle" style="white-space: pre;" direction="ltr">List Item</text></g><g transform="translate(74.388671875 584.5020751953125) rotate(0 158.220703125 51.708984375)"><path d="M0 0 C115.95816107543216 0, 231.91632215086432 0, 316.44140625000006 0 M0 0 C82.92225330672665 0, 165.8445066134533 0, 316.44140625000006 0 M316.44140625000006 0 C316.44140625000006 25.43918831357587, 316.44140625000006 50.87837662715174, 316.44140625000006 103.41796875 M316.44140625000006 0 C316.44140625000006 35.98825450262666, 316.44140625000006 71.97650900525332, 316.44140625000006 103.41796875 M316.44140625000006 103.41796875 C204.74210651654727 103.41796875, 93.04280678309445 103.41796875, 0 103.41796875 M316.44140625000006 103.41796875 C200.89145183222865 103.41796875, 85.34149741445725 103.41796875, 0 103.41796875 M0 103.41796875 C0 76.81004730202403, 0 50.20212585404806, 0 0 M0 103.41796875 C0 69.26615258238598, 0 35.11433641477197, 0 0" stroke="#000000" stroke-width="2" fill="none"></path></g><g transform="translate(81.10351562500023 589.6579234887522) rotate(0 154.5 9.5)"><text x="154.5" y="15" font-family="Cascadia, Segoe UI Emoji" font-size="16px" fill="#000000" text-anchor="middle" style="white-space: pre;" direction="ltr">Child Component with fixed height</text></g><g transform="translate(79.142578125 724.22021484375) rotate(0 158.220703125 51.708984375)"><path d="M0 0 C111.38443803359263 0, 222.76887606718526 0, 316.44140625000006 0 M0 0 C110.51476749667928 0, 221.02953499335857 0, 316.44140625000006 0 M316.44140625000006 0 C316.44140625000006 23.78584949856304, 316.44140625000006 47.57169899712608, 316.44140625000006 103.41796875 M316.44140625000006 0 C316.44140625000006 35.021093274372106, 316.44140625000006 70.04218654874421, 316.44140625000006 103.41796875 M316.44140625000006 103.41796875 C238.263864511154 103.41796875, 160.08632277230794 103.41796875, 0 103.41796875 M316.44140625000006 103.41796875 C220.72904035847608 103.41796875, 125.01667446695211 103.41796875, 0 103.41796875 M0 103.41796875 C0 64.32125682153128, 0 25.224544893062557, 0 0 M0 103.41796875 C0 64.51329441890266, 0 25.608620087805306, 0 0" stroke="#000000" stroke-width="2" fill="none"></path></g><g transform="translate(85.85742187500023 729.3760631371897) rotate(0 154.5 9.5)"><text x="154.5" y="15" font-family="Cascadia, Segoe UI Emoji" font-size="16px" fill="#000000" text-anchor="middle" style="white-space: pre;" direction="ltr">Child Component with fixed height</text></g><g transform="translate(201.41796875 55.4459228515625) rotate(0 29.5 12)"><text x="29.5" y="19" font-family="Cascadia, Segoe UI Emoji" font-size="20px" fill="#ff4000" text-anchor="middle" style="white-space: pre;" direction="ltr">empty</text></g><g stroke-opacity="0.7" fill-opacity="0.7" transform="translate(406.181640625 48.9302978515625) rotate(0 107 11)"><text x="107" y="17" font-family="Cascadia, Segoe UI Emoji" font-size="16px" fill="#000000" text-anchor="middle" style="white-space: pre;" direction="ltr">不渲染不在可视区域内的Item</text></g><g transform="translate(72.240234375 10) rotate(0 158.220703125 51.708984375)"><path d="M0 0 C100.68123738776923 0, 201.36247477553846 0, 316.44140625000006 0 M0 0 C106.94300987315803 0, 213.88601974631607 0, 316.44140625000006 0 M316.44140625000006 0 C316.44140625000006 35.157901335878705, 316.44140625000006 70.31580267175741, 316.44140625000006 103.41796875 M316.44140625000006 0 C316.44140625000006 26.8434326208444, 316.44140625000006 53.6868652416888, 316.44140625000006 103.41796875 M316.44140625000006 103.41796875 C248.70956962982166 103.41796875, 180.9777330096433 103.41796875, 0 103.41796875 M316.44140625000006 103.41796875 C206.2845458891665 103.41796875, 96.12768552833296 103.41796875, 0 103.41796875 M0 103.41796875 C0 62.52561148638051, 0 21.633254222761025, 0 0 M0 103.41796875 C0 80.39377289151162, 0 57.36957703302323, 0 0" stroke="#000000" stroke-width="2" fill="none"></path></g><g transform="translate(78.95507812500023 15.155848293439703) rotate(0 154.5 9.5)"><text x="154.5" y="15" font-family="Cascadia, Segoe UI Emoji" font-size="16px" fill="#000000" text-anchor="middle" style="white-space: pre;" direction="ltr">Child Component with fixed height</text></g></svg>